<svg height="64" viewBox="0 0 64 64" width="64" xmlns="http://www.w3.org/2000/svg"><g fill="none" fill-rule="evenodd" transform="translate(4.2769)"><path d="m5.29599 4.177646h44.854281v53.388841h-44.854281z" fill="#2473e7"/><path d="m7.680822 43.914923h40.084615v15.640675h-40.084615z" fill="#bec2c8"/><path d="m8.03615281 16.0512499.01382876-.8957267c.01271792-.3713477.0226701-.8596294.16385949-1.3999705.13670071-.5365786.44705439-1.1174635.93629784-1.5606636.48244241-.4496305 1.1100415-.7307237 1.687381-.8512379.581488-.1246186 1.1050087-.1280847 1.5030503-.1355413l.9593307-.0023259h28.8464793l.9593306.0023259c.398019.0074566.9215396.0109227 1.5030277.1355413.5773395.1205142 1.2049385.4016074 1.687381.8512379.4892661.4432001.7995971 1.024085.9362978 1.5606636.1412121.5403411.1511642 1.0286228.1638822 1.3999705l.0138287.8957267.3461498 27.4240662.0053048.4237718.0038539.504814-.0324182.8406573-.0984109.6149982c-.1256604.5588572-.4277168 1.1653727-.9171416 1.6289588-.4822611.4702901-1.1181574.7649967-1.7065372.8913028-.5925511.1306159-1.1286537.1342644-1.5360581.1420858l-.9823181.00244h-5.74279-18.0607933-5.7352635l-.9822955-.00244c-.4074044-.0078214-.9435069-.0114699-1.536058-.1420858-.58840251-.1263061-1.22427617-.4210127-1.70653723-.8913028-.48942481-.4635861-.7915039-1.0701016-.9171416-1.6289588l-.09841091-.6149982-.03244092-.8406573.00385392-.5048596.0053048-.4237262z" fill="#fff"/><path d="m37.8396504 0 2.9129946.00757061c1.3029641.02423965 3.0163476.03545875 4.9203414.44055494 1.890437.39189323 3.9471139 1.30558868 5.5333862 2.77093552 1.6083077 1.44427683 2.6352859 3.3411486 3.0925192 5.09816927.4720595 1.76915186.512775 3.37225196.5604502 4.59321856l.0559952 2.7349523.0420984 2.4149342.1248442 7.1586302.1260004 7.2245765.0430052 2.4672901.0406697 2.8128704c0 .937251 0 2.0823061-.1608212 3.3737113l-1.6885372 13.2751837-.2331619 1.3204334c-.3818099 1.7358595-1.3088583 3.6246134-2.8198659 5.0710565-1.4886322 1.4672395-3.4570997 2.3889844-5.2797305 2.7838648-1.8355074.4084939-3.4967044.4199638-4.7588849.4443859l-2.823085.0076618h-19.6094786l-2.823085-.0076618c-1.2621806-.0244221-2.9233776-.035892-4.758885-.4443859-1.82260807-.3948804-3.7910756-1.3166253-5.27970778-2.7838648-1.51103024-1.4464431-2.43805601-3.335197-2.81986585-5.0710565l-.23318466-1.3204334-1.68851446-13.2751837c-.16084071-1.2914052-.16084071-2.4364603-.16084071-3.3737113l.04066651-2.8128704.04302785-2.4672901.12600042-7.2245765.12482158-7.1586302.04212104-2.4149342.05599515-2.7349523c.04767523-1.2209666.08836806-2.8240667.56042757-4.59321856.45725594-1.75702067 1.48423418-3.65389244 3.09251915-5.09816927 1.5862723-1.46534684 3.6429492-2.37904229 5.53338625-2.77093552 1.90399374-.40509619 3.61740004-.41631529 4.92036404-.44055494l2.912972-.00757061zm.3659181 5.22848871h-20.964856l-2.4701568.00387652c-.9879857.01256448-2.1632717.01753554-3.3516158.2257502-1.1843541.20310677-2.3585746.6705009-3.21965305 1.4702267-.87368302.7878682-1.39468728 1.87251812-1.62986691 2.97249168-.24080181 1.10353079-.26145427 2.19976469-.28779693 3.12267259l-.03604546 2.3110892-.03511598 2.5497231-.10104064 7.3346469-.10201546 7.4038769-.03590944 2.6066396-.02847365 2.3775372c.00077079.9522098-.00949877 2.0871633.20507374 3.2351829.20895032 1.1440518.71102504 2.2779791 1.58507079 3.1040653.23547433.226001.49450291.4300199.77209829.6094571l.10834042.0682495.52009745.2827579.95203093.3673799.9126529.2262519 1.0533209.1704756 1.0519607.1282671.6818713.0833908.6619896.0936065 1.0810464.2031524.4957498.1232505.4598857.1373656.272744.094473.255628.0994669c.6856345.2808652 1.1190642.6068576 1.3448357.9112099.2826282.3802637.3043915.7212833.3315276.9796647l.0301059.5793571.0294484.6781855.1028316 2.3695563.0994311 2.2911137.0230782.5322232.0143728.2760309c.0128993.1210158.0234409.2799303.1586454.4555138.1309198.1743521.4265833.3627509.8910483.5062961l.1138039.0339993c.4403667.1266482.9832476.2052731 1.4860931.2415072l1.4240224.0438274.8456174.0007525h7.624091l.8456174-.0007525 1.4240224-.0438274c.5056566-.0363937 1.0518247-.1157711 1.4934609-.243605l.1064362-.0319015c.4644423-.1435452.7601058-.331944.8910256-.5062961.1351818-.1755835.1457234-.334498.1586-.4555138l.0143729-.2760309.0230782-.5322232.0993403-2.2911137.1027409-2.3695563.0294258-.6781855.0300606-.5793571c.0271588-.2583814.0488994-.599401.3315275-.9796647.2265424-.3055152.6626017-.632853 1.3526116-.9144251l.2519782-.0977795.26855-.0929452.4615406-.1377989.4976087-.1235925 1.0852631-.2035172.658249-.0928312.6778587-.0827067 1.0558146-.128404 1.0571748-.170772.9044691-.2236752.9492424-.3645979.5191453-.2807056.10995-.0689108c.281472-.1810334.5440371-.3873098.7823906-.6160928.8740684-.8260862 1.3761204-1.9600135 1.5850707-3.1040653l.1249576-.8762757c.0826779-.8432112.0817711-1.6486605.0805567-2.3589072l-.0289142-2.3775372-.0359094-2.6066396-.1019928-7.4038769-.1010406-7.3346469-.0351387-2.5497231-.0360455-2.3110892c-.0263199-.9229079-.0469724-2.0191418-.2877969-3.12267259-.2351569-1.09997356-.7561839-2.18462348-1.6298669-2.97249168-.8610784-.7997258-2.035299-1.26711993-3.2196531-1.4702267-1.188344-.20821466-2.36363-.21318572-3.3516157-.2257502z" fill="#2473e7"/><path d="m24.0067402 37.217566c1.1870972 1.3075498 2.0640673 1.7330775 2.8796696 1.6359593.8156248-.097141 1.5698591-.7169051 2.3887258-2.251824 3.0924285-4.9111387 6.4961855-9.5985794 10.1659534-14.0170582.6588385-.8045144 1.1561978-1.3187232 1.2743997-1.9287048.1181793-.6099816-.1427989-1.3157588-.6648687-1.7118934-.5220698-.3961118-1.3052311-.4826038-1.9137419-.2455205-.6085109.2370833-1.0423939.797742-1.7332426 1.5763749-3.6464404 4.193025-7.0570891 8.634284-10.192364 13.2864484l-4.098845-3.7806774c-.7835693-.7145108-1.2930798-1.2390266-1.9620518-1.4332402-.6689494-.1941907-1.4973602-.0580793-2.0262763.4238631-.2644694.2409599-.4540595.5683889-.5323167.9097734-.0782572.3413844-.0451815.6967244.0641564 1.0118397.2186985.6301851.7425365 1.0994035 1.511597 1.8454281z" fill="#374049"/></g></svg>